<svg width="1440" height="1024" viewBox="0 0 1440 1024" fill="none" xmlns="http://www.w3.org/2000/svg">
<rect width="171.609" height="171.609" transform="matrix(0.706958 -0.707255 0.706958 0.707255 849.784 371.371)" fill="#A4AC86" fill-opacity="0.5"/>
<rect width="171.609" height="171.609" transform="matrix(0.706958 -0.707255 0.706958 0.707255 977.359 499.894)" fill="#A4AC86" fill-opacity="0.5"/>
<rect width="171.609" height="171.609" transform="matrix(0.706958 -0.707255 0.706958 0.707255 720 499.894)" fill="#A4AC86" fill-opacity="0.5"/>
<rect width="171.609" height="171.609" transform="matrix(0.706958 -0.707255 0.706958 0.707255 849.573 628.629)" fill="#A4AC86" fill-opacity="0.5"/>
<rect width="102.965" height="102.965" transform="matrix(0.706958 -0.707255 0.706958 0.707255 1107.87 174.823)" fill="#A4AC86" fill-opacity="0.5"/>
<rect width="102.965" height="102.965" transform="matrix(0.706958 -0.707255 0.706958 0.707255 1184.42 251.936)" fill="#A4AC86" fill-opacity="0.5"/>
<rect width="102.965" height="102.965" transform="matrix(0.706958 -0.707255 0.706958 0.707255 1030 251.936)" fill="#A4AC86" fill-opacity="0.5"/>
<rect width="102.965" height="102.965" transform="matrix(0.706958 -0.707255 0.706958 0.707255 1107.74 329.177)" fill="#A4AC86" fill-opacity="0.5"/>
<rect width="173.325" height="173.325" transform="matrix(0.706958 -0.707256 0.706958 0.707256 165.082 253.585)" fill="#A4AC86" fill-opacity="0.5"/>
<rect width="173.325" height="173.325" transform="matrix(0.706958 -0.707256 0.706958 0.707256 293.933 383.394)" fill="#A4AC86" fill-opacity="0.5"/>
<rect width="173.325" height="173.325" transform="matrix(0.706958 -0.707256 0.706958 0.707256 34 383.394)" fill="#A4AC86" fill-opacity="0.5"/>
<rect width="173.325" height="173.325" transform="matrix(0.706958 -0.707256 0.706958 0.707256 164.869 513.415)" fill="#A4AC86" fill-opacity="0.5"/>
</svg>
